<?xml version="1.0" encoding="utf-8"?>
<!-- Generator: Adobe Illustrator 26.1.0, SVG Export Plug-In . SVG Version: 6.00 Build 0)  -->
<svg version="1.1" xmlns="http://www.w3.org/2000/svg" xmlns:xlink="http://www.w3.org/1999/xlink" x="0px" y="0px"
	 viewBox="0 0 612 792" style="enable-background:new 0 0 612 792;" xml:space="preserve">
<style type="text/css">
	.st0{fill:url(#SVGID_1_);}
	.st1{fill:none;stroke:#000000;stroke-miterlimit:10;}
	.st2{fill:url(#SVGID_00000080173501944972335440000009451445213776871573_);}
	.st3{stroke:#000000;stroke-miterlimit:10;}
	.st4{display:none;}
	.st5{display:inline;fill:#C49A6C;stroke:#000000;stroke-miterlimit:10;}
	.st6{display:inline;stroke:#000000;stroke-miterlimit:10;}
</style>
<g id="Box">
	<g>
		<g>
			<g>
				<linearGradient id="SVGID_1_" gradientUnits="userSpaceOnUse" x1="420.2873" y1="153.8726" x2="170.7997" y2="154.9143">
					<stop  offset="2.331713e-03" style="stop-color:#FFFFFF"/>
					<stop  offset="0.0683" style="stop-color:#FEF2E4"/>
					<stop  offset="0.2276" style="stop-color:#FCD6A8"/>
					<stop  offset="0.3811" style="stop-color:#FABE76"/>
					<stop  offset="0.5248" style="stop-color:#F9AC50"/>
					<stop  offset="0.6565" style="stop-color:#F89F34"/>
					<stop  offset="0.7718" style="stop-color:#F79723"/>
					<stop  offset="0.8583" style="stop-color:#F7941D"/>
				</linearGradient>
				<path class="st0" d="M304.86,181.71c0.02-1.07,104.47-0.07,108.71,1.04c-4.24-1.12-22.19-55.76-18.68-56.87
					c-3.51,1.12-90,1.12-90.03,0c0.02,1.12,1.13,1.12,1.15,0c-0.02,1.12-86.52,1.12-90.03,0c3.51,1.12-14.44,55.76-18.68,56.87
					c4.24-1.12,108.68-2.12,108.71-1.04C305.99,180.63,304.89,180.63,304.86,181.71z"/>
				<path class="st1" d="M304.86,181.71c0.02-1.07,104.47-0.07,108.71,1.04c-4.24-1.12-22.19-55.76-18.68-56.87
					c-3.51,1.12-90,1.12-90.03,0c0.02,1.12,1.13,1.12,1.15,0c-0.02,1.12-86.52,1.12-90.03,0c3.51,1.12-14.44,55.76-18.68,56.87
					c4.24-1.12,108.68-2.12,108.71-1.04C305.99,180.63,304.89,180.63,304.86,181.71z"/>
			</g>
		</g>
	</g>
	<g>
		
			<linearGradient id="SVGID_00000004521329309392009030000010286167695120808627_" gradientUnits="userSpaceOnUse" x1="417.1312" y1="202.9016" x2="200.8804" y2="205.3171">
			<stop  offset="0" style="stop-color:#FFFFFF"/>
			<stop  offset="0.0973" style="stop-color:#FDEAD2"/>
			<stop  offset="0.2151" style="stop-color:#FCD3A2"/>
			<stop  offset="0.3368" style="stop-color:#FAC079"/>
			<stop  offset="0.4603" style="stop-color:#F9B058"/>
			<stop  offset="0.5862" style="stop-color:#F8A43E"/>
			<stop  offset="0.7156" style="stop-color:#F89B2C"/>
			<stop  offset="0.8505" style="stop-color:#F79621"/>
			<stop  offset="1" style="stop-color:#F7941D"/>
		</linearGradient>
		<path style="fill:url(#SVGID_00000004521329309392009030000010286167695120808627_);" d="M413.57,226.55
			c-4.24-0.88-4.24-43.91,0-44.79c-4.24,0.88-212.02,0.88-216.26,0c4.24,0.88,4.24,43.91,0,44.79"/>
		<path class="st1" d="M413.57,226.55c-4.24-0.88-4.24-43.91,0-44.79c-4.24,0.88-212.02,0.88-216.26,0c4.24,0.88,4.24,43.91,0,44.79
			"/>
	</g>
	<g>
		<path class="st1" d="M197.31,226.11c4.24,0,212.02,0,216.26,0"/>
	</g>
	<ellipse class="st3" cx="305.89" cy="152.57" rx="61.53" ry="17.36"/>
</g>
<g id="mole" class="st4">
	<path class="st5" d="M342.15,154.31H267.6V90.21c-0.04-1.46-0.08-14.06,15.32-21.82c9.57-4.83,19.93-5.17,23.74-5.17
		c3.45,0.18,14.26,1.02,23.49,6.75c12.72,7.89,12.13,18.64,12,20.24C342.15,111.57,342.15,132.94,342.15,154.31z"/>
	<ellipse class="st6" cx="319.68" cy="91.04" rx="9.45" ry="14.04"/>
	<ellipse class="st6" cx="290.57" cy="91.04" rx="9.96" ry="14.04"/>
</g>
</svg>
